PathFileType	4	(X/Y/Z)	/Users/visionmauri/1_1_1_f_Sports2D/1_1_1_f_Sports2D_m_person00.trc
DataRate	CameraRate	NumFrames	NumMarkers	Units	OrigDataRate	OrigDataStartFrame	OrigNumFrames
30.0	30.0	8	22	m	30.0	0	358
Frame#	Time	Hip			RHip			RKnee			RAnkle			RBigToe			RSmallToe			RHeel			LHip			LKnee			LAnkle			LBigToe			LSmallToe			LHeel			Neck			Head			Nose			RShoulder			RElbow			RWrist			LShoulder			LElbow			LWrist			
		X1	Y1	Z1	X2	Y2	Z2	X3	Y3	Z3	X4	Y4	Z4	X5	Y5	Z5	X6	Y6	Z6	X7	Y7	Z7	X8	Y8	Z8	X9	Y9	Z9	X10	Y10	Z10	X11	Y11	Z11	X12	Y12	Z12	X13	Y13	Z13	X14	Y14	Z14	X15	Y15	Z15	X16	Y16	Z16	X17	Y17	Z17	X18	Y18	Z18	X19	Y19	Z19	X20	Y20	Z20	X21	Y21	Z21	X22	Y22	Z22
0	0.0	0.679877582911855	0.7857929740669429	0.0301	0.8179311135290142	0.7957196115326879	0.0301	1.0388211212004461	0.2782943173496714	0.129	1.2547331936267352	-0.2560471988482693	0.023	1.223834508992288	-0.3206290218325823	0.2179	1.3350115462385292	-0.2874999351470644	0.1804	1.2826895644439098	-0.3600973768422514	-0.0119	0.5658559456626868	0.6989612101553385	0.0301	0.7726342425360211	0.22250865947452475	0.129	1.0300818548307409	-0.286090657297207	0.023	1.114706363873114	-0.4124322687185648	0.2179	1.024763387115441	-0.4396460847083411	0.1804	1.0775495725814404	-0.38182306432098667	-0.0119	0.33647877690530165	1.4986628028792353	0.0008	0.21236463167674877	1.7409261221270524	0.0655	0.26462679070948	1.5776573758613257	0.1076	0.6274108391576518	1.485710484377982	-0.01275	0.8892157777738929	1.1717975564333012	0.0702	1.038884937802011	0.9586520907362223	0.1076	0.17292742690718368	1.281151678030681	-0.01275	0.2522612018386398	0.8680099899606818	0.0702	0.2943246992286795	0.8454526718087985	0.1076
1	0.03342670401493931	0.6793630051786159	0.7850459514209013	0.0301	0.817546379071765	0.7919384886515791	0.0301	1.0404167132877344	0.2762377120665196	0.129	1.2554551252968336	-0.25591548357668453	0.023	1.2349014197084558	-0.31264520028808956	0.2179	1.3396081822984522	-0.2840190570361663	0.1804	1.2834797806318656	-0.3598879024266095	-0.0119	0.5670454200483669	0.6953897843180082	0.0301	0.7734527034796237	0.21863985839300146	0.129	1.0293413694692555	-0.2779870890756855	0.023	1.116484431721845	-0.40866299560674946	0.2179	1.029242172473791	-0.43587599442927705	0.1804	1.0767500400878274	-0.37314985126983424	-0.0119	0.33674908818288274	1.5013848457506591	0.0008	0.2153064793755914	1.7375719089256478	0.0655	0.26212804744365464	1.5728900589904347	0.1076	0.6287124710336182	1.4831583199993392	-0.01275	0.8867433916901651	1.172004588038036	0.0702	1.0386921595523857	0.9583694532007137	0.1076	0.1728508474466685	1.2836969657455541	-0.01275	0.25276646586122964	0.8740832137179568	0.0702	0.29662250329964374	0.8394677706321635	0.1076
2	0.06685340802987862	0.6753476344567775	0.7865994717906957	0.0301	0.8152308438790604	0.7893928826445664	0.0301	1.0402965737889471	0.27479418338706557	0.129	1.2551710010768375	-0.25675420575581254	0.023	1.2457507436649005	-0.3018829409446086	0.2179	1.342448195547808	-0.28031022653651133	0.1804	1.2832164129406878	-0.3601395997146299	-0.0119	0.5656492269064564	0.6936308149335781	0.0301	0.7680508456509679	0.22295059925367988	0.129	1.0264021315419882	-0.27607057030615967	0.023	1.1149874164146043	-0.40838720951237906	0.2179	1.0283924988301498	-0.43433094100102204	0.1804	1.0727553420687972	-0.36417343474088254	-0.0119	0.3371569660560769	1.5029306735707213	0.0008	0.2196382572533787	1.7302845704494343	0.0655	0.26198766754666714	1.567377855760659	0.1076	0.6290173661590726	1.4809964209994495	-0.01275	0.8858464958888672	1.172155438952741	0.0702	1.0394325263244444	0.9568776818886141	0.1076	0.1723185382544483	1.2865526802040346	-0.01275	0.2530010699492581	0.8778587187905524	0.0702	0.303911407942005	0.8233206946874179	0.1076
3	0.10028011204481793	0.667858742225732	0.7902923629337186	0.0301	0.8110654286457829	0.7904647123543755	0.0301	1.0385442991870097	0.2739397987178059	0.129	1.2541604482666397	-0.25914936064065314	0.023	1.2487869097653825	-0.29437437325841614	0.2179	1.34266847241132	-0.2800749878927711	0.1804	1.2820114844456638	-0.36162527272483086	-0.0119	0.5602745782667764	0.6962592912423143	0.0301	0.7529028273358005	0.24485484351895515	0.129	1.0195679005392315	-0.28175835279773065	0.023	1.1073008664844373	-0.4134039993018668	0.2179	1.0190085838182799	-0.436443507804549	0.1804	1.0643933176238976	-0.3582511143197115	-0.0119	0.3382179957734028	1.5011616488306205	0.0008	0.2246712679854411	1.7193777019265615	0.0655	0.2660491126291162	1.5617457096568508	0.1076	0.6281542417159215	1.4799926738321059	-0.01275	0.8874150216346757	1.171467951623249	0.0702	1.0415690865449556	0.953327132078612	0.1076	0.17004629148106354	1.2877689924483746	-0.01275	0.2517834219780173	0.8770076098940756	0.0702	0.3145999455905283	0.8020830787438092	0.1076
4	0.13370681605975723	0.6613319000636635	0.792881404303424	0.0301	0.8069726588862636	0.7944670543880469	0.0301	1.0375668826071907	0.2728991082437261	0.129	1.2536455005150045	-0.26142320866952556	0.023	1.2411472354731772	-0.2931991797488601	0.2179	1.3420483479689933	-0.2825658849442354	0.1804	1.2808878375187256	-0.3639230962166604	-0.0119	0.5534490258542496	0.7022115099156122	0.0301	0.7348301610442077	0.2758221805461084	0.129	1.0102515129346394	-0.2868542351917607	0.023	1.0951739214657474	-0.4173156971388858	0.2179	1.0075873930693595	-0.43880247646823556	0.1804	1.0558063326612441	-0.35813945175797646	-0.0119	0.33940047545863206	1.4968112713175843	0.0008	0.2290766325455719	1.7072849425209575	0.0655	0.2715085824199233	1.5539184811572866	0.1076	0.6266267802165645	1.479569232813069	-0.01275	0.8901911877720591	1.169283607230339	0.0702	1.044661772220917	0.9477902024432789	0.1076	0.1659545892465576	1.286638357475955	-0.01275	0.24817412611027648	0.8715333646781918	0.0702	0.3210575426287057	0.7922366048286451	0.1076
5	0.16713352007469653	0.6588456944154184	0.7922977437932854	0.0301	0.8037174413351482	0.7975968068673567	0.0301	1.0382347248643984	0.27206859029371044	0.129	1.2536143255177559	-0.26138894187154094	0.023	1.2310195453720838	-0.2919852955416687	0.2179	1.3419279035232345	-0.2811698404777998	0.1804	1.2796472975303936	-0.36442070391282344	-0.0119	0.5489951643475864	0.7071331455934242	0.0301	0.7268839540180452	0.2907217791718435	0.129	1.0033051030183016	-0.28375202960805374	0.023	1.0857993877112817	-0.4154307535845735	0.2179	1.0049045532365506	-0.43797456434626075	0.1804	1.0520249590223292	-0.36153059499397455	-0.0119	0.33915135176843136	1.4923731614430402	0.0008	0.23214727163080542	1.6960057769949433	0.0655	0.27545965246768284	1.5417496448489565	0.1076	0.6240684770458907	1.478697757065654	-0.01275	0.8912519239462303	1.1673177884394335	0.0702	1.0478263028897845	0.9422951124275017	0.1076	0.16270890090226237	1.2847746675098068	-0.01275	0.24365921298380477	0.8641111347165179	0.0702	0.3208081955492568	0.796165144111615	0.1076
6	0.20056022408963586	0.6577567281779166	0.7905403886373701	0.0301	0.8002886277385026	0.79828232359561	0.0301	1.0380515474617302	0.27234017562954005	0.129	1.2530073186196429	-0.2605777845134735	0.023	1.2262074471188484	-0.2893188965738045	0.2179	1.3407652245422557	-0.27754863898268123	0.1804	1.2778444661040742	-0.3623888713251107	-0.0119	0.5465819517949371	0.7089054747930713	0.0301	0.7292845251409001	0.286717438934544	0.129	1.0014608828934943	-0.27678429783071784	0.023	1.0843765537745809	-0.4157482773666713	0.2179	1.0103146463437342	-0.4380498507477441	0.1804	1.0507326555338048	-0.3627847483629413	-0.0119	0.33798881768971706	1.4868950638320158	0.0008	0.23389140494671673	1.687183734547286	0.0655	0.28160962064519074	1.5290984306430633	0.1076	0.6201516320520913	1.477636695965973	-0.01275	0.8883067845271158	1.1688285147262993	0.0702	1.0505482716189247	0.9393390601127958	0.1076	0.16247250123402612	1.2826243904710444	-0.01275	0.24055602813405635	0.8599576690392882	0.0702	0.31954801928388304	0.7976616428125136	0.1076
7	0.23398692810457516	0.655208106746178	0.7896161618504213	0.0301	0.7972263855654023	0.7980637713164522	0.0301	1.0349414293672445	0.27348732466208026	0.129	1.2522737267674042	-0.2617455032892131	0.023	1.2264504880349034	-0.29008387930130114	0.2179	1.337198852276215	-0.2791941544634011	0.1804	1.276263951956831	-0.36031055403654016	-0.0119	0.5438993080904612	0.7079904128381088	0.0301	0.7304606373923631	0.2839528946741193	0.129	1.0026325835835312	-0.2758272221519454	0.023	1.0873568427287403	-0.42145816743064224	0.2179	1.013640061712695	-0.4418159641639014	0.1804	1.0483244351388543	-0.3609664193887176	-0.0119	0.33759653071563017	1.4794019766954358	0.0008	0.23506335755385957	1.6803583359175291	0.0655	0.29184167102700914	1.52149204628686	0.1076	0.6160397301387579	1.4762718391004575	-0.01275	0.8821859061266301	1.1736948549904196	0.0702	1.0523602828019039	0.9392736906466033	0.1076	0.16366652515320865	1.2798010382108154	-0.01275	0.23852393234386743	0.8631705453422823	0.0702	0.31575223602155306	0.7965297616638932	0.1076
